<svg width="109" height="117" viewBox="0 0 109 117" fill="none" xmlns="http://www.w3.org/2000/svg">
<path d="M29.3929 16.737C34.3148 19.3532 35.7536 21.5873 36.4298 26.6703L36.575 28.6767L57.1681 19.8675C54.9844 20.2232 53.6464 20.6042 52.0574 20.0328C43.6339 16.5881 38.9189 15.2729 30.4893 15.3704C28.4333 15.3532 28.2171 15.6643 29.3929 16.737Z" fill="#5AB8DC"/>
<path d="M80.7005 19.4431C69.9011 17.0804 63.9555 17.0671 53.7028 21.0518L36.3788 26.2898C33.507 32.0525 31.0711 34.2987 27.221 38.8953C19.4924 49.0727 17.0393 55.5524 13.4108 67.4172C12.0895 74.7078 14.0856 78.5886 17.4316 85.0939L17.5012 85.2291L19.1951 90.1226C19.7464 91.9496 20.5325 92.3103 21.7595 93.194L21.3883 92.0936C21.4183 91.4686 21.4965 91.1446 21.9537 90.6917C22.393 90.6494 22.6531 90.8189 23.1219 91.1628L29.5565 98.7828L21.2981 82.5498C20.1322 79.4821 22.9102 75.8375 25.0517 70.2098C28.2527 64.0697 30.8044 60.8616 37.3958 55.7653C49.6897 49.2175 57.0047 46.1207 71.4201 42.4573L85.0434 38.9867C87.8995 39.976 90.9806 40.4302 97.5492 41.9923C98.9491 43.236 100.483 45.1592 102.618 44.5795C103.417 43.2719 102.578 41.983 101.135 39.4995L101.094 37.5814C101.034 33.5671 99.9124 31.4377 97.1914 27.7228C91.985 22.9099 88.6401 20.7656 80.7005 19.4431Z" fill="#5AB8DC"/>
<path d="M82.5771 31.3488C89.177 31.8935 104.241 42.5742 98.1719 39.7196C92.1023 36.8649 47.038 44.9843 28.7189 63.8104C28.5569 53.825 28.753 49.3961 38.5609 40.9277C45.3699 34.4136 54.9075 34.5423 60.3908 33.7C65.8741 32.8576 74.6609 30.6572 82.5771 31.3488Z" fill="#C2EEFF"/>
<path d="M101.268 41.863C100.473 40.5916 100.284 40.1372 98.6318 39.306C96.2515 38.1936 94.9106 37.8459 92.5061 38.3299L86.842 39.5771L97.5012 42.1098C98.8377 43.4684 99.7171 44.3614 101.377 44.6234C101.664 43.71 102.176 43.3157 101.268 41.863Z" fill="#C2EEFF"/>
<path d="M84.2847 38.9316C81.5583 35.507 79.9293 34.2629 75.8865 39.2122L70.5634 43.9925L68.2891 45.9276C66.7159 47.2663 67.6342 47.2237 69.2575 47.1483L69.2915 47.1468C72.7935 47.1028 74.7534 46.8998 78.2549 45.4643C80.5842 44.5213 81.7025 43.6788 83.2954 41.3849C84.0883 40.2598 84.4227 39.6742 84.2847 38.9316Z" fill="#5AB8DC"/>
</svg>
